<?xml version="1.0" encoding="utf-8"?> <!-- Generator: IcoMoon.io --> <!DOCTYPE svg PUBLIC "-//W3C//DTD SVG 1.1//EN" "http://www.w3.org/Graphics/SVG/1.1/DTD/svg11.dtd"> <svg width="512" height="512" viewBox="0 0 512 512" xmlns="http://www.w3.org/2000/svg" xmlns:xlink="http://www.w3.org/1999/xlink" fill="#000000"><path d="M 415.75,512.00q-13.25,0.00 -22.50-9.25t-9.25-22.75l-256.00,0.00 q0.00,13.00 -9.50,22.50t-22.75,9.50t-22.50-9.25t-9.25-22.75l 96.00-464.00q0.00-3.00 0.25-5.25t 1.00-4.00t 1.00-2.75t 1.50-1.75t 1.75-1.25t 2.50-0.75t 2.50-0.25l 2.75,0.00 l 2.75,0.00 l 2.75,0.00 l 2.75,0.00 t 2.50,0.25t 2.50,0.75t 1.75,1.25t 1.50,1.75t 1.00,2.75t 1.00,4.00t 0.25,5.25l-2.00,16.00l 132.00,0.00 l-2.00-16.00q0.00-3.00 0.25-5.25t 0.75-4.00 t 1.00-2.75t 1.75-1.75t 1.75-1.25t 2.50-0.75t 2.50-0.25l 2.75,0.00 l 2.75,0.00 l 2.75,0.00 l 2.75,0.00 t 2.50,0.25t 2.50,0.75t 1.75,1.25t 1.50,1.75t 1.00,2.75t 1.00,4.00t 0.25,5.25l 96.00,464.00q0.00,13.50 -9.50,22.75t-22.75,9.25zM 181.00,96.00l-9.00,64.00l 168.00,0.00 l-9.00-64.00l-150.00,0.00 zM 348.50,224.00l-185.00,0.00 l-9.00,64.00l 203.00,0.00 zM 366.50,352.00l-221.00,0.00 l-8.50,64.00l 238.00,0.00 z" ></path></svg>