<?xml version="1.0" encoding="utf-8"?> <!-- Generator: IcoMoon.io --> <!DOCTYPE svg PUBLIC "-//W3C//DTD SVG 1.1//EN" "http://www.w3.org/Graphics/SVG/1.1/DTD/svg11.dtd"> <svg width="512" height="512" viewBox="0 0 512 512" xmlns="http://www.w3.org/2000/svg" xmlns:xlink="http://www.w3.org/1999/xlink" fill="#000000"><path d="M 496.00,383.50l-54.00,0.00 q-6.00,17.50 -19.00,32.00l 23.50,41.50q 3.00,6.00 1.25,12.00t-6.75,9.50l-26.50,15.50q-5.50,3.00 -11.50,1.50t-9.00-7.50l-24.00-42.00q-10.00,2.00 -18.00,2.00t-18.00-2.00l-24.00,42.00q-3.00,6.00 -9.00,7.50t-11.50-1.50l-26.50-15.50q-5.00-3.50 -6.75-9.50t 1.25-12.00l 23.50-41.50q-13.00-14.50 -19.00-32.00l-54.00,0.00 q-6.50,0.00 -11.25-4.50t-4.75-11.50l0.00-32.00 q0.00-6.50 4.75-11.25t 11.25-4.75l 54.00,0.00 q 6.00-17.00 19.00-31.50l-23.50-41.50q-3.00-6.00 -1.25-12.00t 6.75-9.50l 26.50-15.50q 5.50-3.00 11.50-1.50t 9.00,7.00l 24.00,42.50q 10.00-2.00 18.00-2.00t 18.00,2.00l 24.00-42.50q 3.00-5.50 9.00-7.00t 11.50,1.50l 26.50,15.50q 5.00,3.50 6.75,9.50t-1.25,12.00l-23.50,41.50q 13.00,14.50 19.00,31.50l 54.00,0.00 q 6.50,0.00 11.25,4.75t 4.75,11.25l0.00,32.00 q0.00,7.00 -4.75,11.50t-11.25,4.50zM 352.00,319.50q-13.50,0.00 -22.75,9.50 t-9.25,22.75t 9.25,22.50t 22.75,9.25t 22.75-9.25t 9.25-22.50t-9.25-22.75t-22.75-9.50zM 304.00,191.50l-54.00,0.00 q-6.00,17.50 -19.00,32.00l 23.50,41.50q 3.00,5.50 1.25,11.75t-6.75,9.75l-26.50,15.50q-5.50,3.00 -11.50,1.25t-9.00-7.25l-24.00-42.00q-9.50,1.50 -18.00,1.50t-18.00-1.50l-24.00,42.00q-3.00,5.50 -9.00,7.25t-11.50-1.25l-26.50-15.50q-5.00-3.50 -6.75-9.75 t 1.25-11.75l 23.50-41.50q-13.00-14.50 -19.00-32.00l-54.00,0.00 q-6.50,0.00 -11.25-4.50t-4.75-11.50l0.00-32.00 q0.00-6.50 4.75-11.25t 11.25-4.75l 54.00,0.00 q 6.00-17.00 19.00-32.00l-23.50-41.50q-3.00-5.50 -1.25-11.75t 6.75-9.25l 26.50-15.50q 5.50-3.50 11.50-1.75t 9.00,7.25l 24.00,42.50q 10.00-2.00 18.00-2.00t 18.00,2.00l 24.00-42.50q 3.00-5.50 9.00-7.25t 11.50,1.75l 26.50,15.50q 5.00,3.00 6.75,9.25t-1.25,11.75l-23.50,41.50 q 13.00,15.00 19.00,32.00l 54.00,0.00 q 6.50,0.00 11.25,4.75t 4.75,11.25l0.00,32.00 q0.00,7.00 -4.75,11.50t-11.25,4.50zM 160.00,127.50q-13.50,0.00 -22.75,9.50t-9.25,22.75t 9.25,22.50t 22.75,9.25t 22.75-9.25t 9.25-22.50t-9.25-22.75t-22.75-9.50z" ></path></svg>