<?xml version="1.0" encoding="UTF-8" standalone="no"?>
<svg
   xmlns:dc="http://purl.org/dc/elements/1.1/"
   xmlns:cc="http://creativecommons.org/ns#"
   xmlns:rdf="http://www.w3.org/1999/02/22-rdf-syntax-ns#"
   xmlns:svg="http://www.w3.org/2000/svg"
   xmlns="http://www.w3.org/2000/svg"
   xmlns:sodipodi="http://sodipodi.sourceforge.net/DTD/sodipodi-0.dtd"
   xmlns:inkscape="http://www.inkscape.org/namespaces/inkscape"
   height="470"
   id="svg2217"
   inkscape:version="0.48.2 r9819"
   sodipodi:docname="Tram_Train_Subway_Transportation_Symbol_clip_art.svg"
   sodipodi:version="0.32"
   width="470"
   inkscape:output_extension="org.inkscape.output.svg.inkscape"
   inkscape:export-filename="D:\桌面\train.png"
   inkscape:export-xdpi="12.25532"
   inkscape:export-ydpi="12.25532"
   version="1.1">
  <metadata
     id="metadata3">
    <rdf:RDF>
      <cc:Work
         rdf:about="">
        <dc:title>AIGA_Symbol_Signs</dc:title>
        <dc:description>EPS converted from  http://aiga.org</dc:description>
        <dc:subject>
          <rdf:Bag>
            <rdf:li>symbol</rdf:li>
            <rdf:li>mapsym</rdf:li>
          </rdf:Bag>
        </dc:subject>
        <dc:publisher>
          <cc:Agent
             rdf:about="http://www.openclipart.org/">
            <dc:title>Open Clip Art Library</dc:title>
          </cc:Agent>
        </dc:publisher>
        <dc:creator>
          <cc:Agent>
            <dc:title>Jean-Victor Balin</dc:title>
          </cc:Agent>
        </dc:creator>
        <dc:rights>
          <cc:Agent>
            <dc:title>Jean-Victor Balin</dc:title>
          </cc:Agent>
        </dc:rights>
        <dc:date />
        <dc:format>image/svg+xml</dc:format>
        <dc:type
           rdf:resource="http://purl.org/dc/dcmitype/StillImage" />
        <cc:license
           rdf:resource="http://web.resource.org/cc/PublicDomain" />
        <dc:language>en</dc:language>
      </cc:Work>
      <cc:License
         rdf:about="http://web.resource.org/cc/PublicDomain">
        <cc:permits
           rdf:resource="http://web.resource.org/cc/Reproduction" />
        <cc:permits
           rdf:resource="http://web.resource.org/cc/Distribution" />
        <cc:permits
           rdf:resource="http://web.resource.org/cc/DerivativeWorks" />
      </cc:License>
    </rdf:RDF>
  </metadata>
  <sodipodi:namedview
     bordercolor="#666666"
     borderopacity="1.0"
     id="base"
     inkscape:current-layer="svg2217"
     inkscape:cx="249.8832"
     inkscape:cy="417.84947"
     inkscape:pageopacity="0.0"
     inkscape:pageshadow="2"
     inkscape:window-height="746"
     inkscape:window-width="1304"
     inkscape:window-x="-8"
     inkscape:window-y="-8"
     inkscape:zoom="0.43415836"
     pagecolor="#ffffff"
     showgrid="false"
     inkscape:window-maximized="1" />
  <defs
     id="defs2219">
    <inkscape:perspective
       sodipodi:type="inkscape:persp3d"
       inkscape:vp_x="0 : 235.832 : 1"
       inkscape:vp_y="0 : 1000 : 0"
       inkscape:vp_z="313.62201 : 235.832 : 1"
       inkscape:persp3d-origin="156.811 : 157.22133 : 1"
       id="perspective20" />
    <marker
       id="ArrowEnd"
       markerHeight="3"
       markerUnits="strokeWidth"
       markerWidth="4"
       orient="auto"
       refX="0"
       refY="5"
       viewBox="0 0 10 10">
      <path
         d="M 0,0 10,5 0,10 z"
         id="path2222"
         inkscape:connector-curvature="0" />
    </marker>
    <marker
       id="ArrowStart"
       markerHeight="3"
       markerUnits="strokeWidth"
       markerWidth="4"
       orient="auto"
       refX="10"
       refY="5"
       viewBox="0 0 10 10">
      <path
         d="M 10,0 0,5 10,10 z"
         id="path2225"
         inkscape:connector-curvature="0" />
    </marker>
  </defs>
  <g
     id="g3002"
     transform="matrix(1.1200049,0,0,0.99648842,59.369232,1.6581654)">
    <path
       inkscape:connector-curvature="0"
       id="path2229"
       d="M 157.09375,37.710991 83,37.773491 c -34.507,0 -59.90625,27.71425 -59.90625,57.90625 l 0,213.843759 c 0,29.25001 22.89425,53.26075 45.90625,56.96875 l -69,103.5 39.8125,0 49.375,-72.34375 67.5625,0 0.0625,0 0.0625,0 67.5625,0 49.375,72.34375 39.8125,0 -69,-103.5 c 23.012,-3.708 45.90625,-27.71875 45.90625,-56.96875 l 0,-213.843759 C 290.53126,65.487739 265.132,37.773491 230.625,37.773491 l -73.53125,-0.0625 z m -29.34375,12.40625 29,0 0.0625,0 0.0625,0 29,0 c 5.25,0 9.8125,4.40625 9.8125,9.65625 l 0,17 c 0,5.25 -4.31249,9.750004 -9.8125,9.75 l -29,0 -0.0625,0 -0.0625,0 -29,0 c -5.5,0 -9.8125,-4.500004 -9.8125,-9.75 l 0,-17 c 0,-5.25 4.5625,-9.65625 9.8125,-9.65625 z m -42.75,47.9375 71.75,0 0.125,0 71.75,0 c 19.5,0 29.84375,13.968759 29.84375,29.968759 l 0,38.5 c 0.152,18.5 -13.34374,29.81249 -29.84375,29.8125 l -71.75,0 -0.0625,0 -0.0625,0 -71.75,0 c -16.5,0 -29.99575,-11.3125 -29.84375,-29.8125 l 0,-38.5 C 55.15625,112.0235 65.5,98.054743 85,98.054741 z M 81.75,282.7735 c 14.505,10e-6 26.25,11.745 26.25,26.25 0,14.50401 -11.745,26.25 -26.25,26.25 -14.505,10e-6 -26.25,-11.746 -26.25,-26.25 0,-14.50499 11.745,-26.25 26.25,-26.25 z m 149.5,0 c 14.505,0 26.28125,11.74501 26.28125,26.25 0,14.504 -11.77625,26.25001 -26.28125,26.25 -14.505,0 -26.25,-11.74599 -26.25,-26.25 0,-14.505 11.745,-26.24999 26.25,-26.25 z"
       style="fill:#000000;stroke:none" />
    <path
       inkscape:connector-curvature="0"
       style="fill:#000000;stroke:none"
       id="path2233"
       d="m 134.768,31.519991 c -9.165,0 -16.591,-7.428 -16.591,-16.593 0,-9.1629999 7.426,-16.5909998 16.591,-16.5909998 9.163,0 16.591,7.4279999 16.591,16.5909998 0,9.165 -7.428,16.593 -16.591,16.593 z" />
    <path
       inkscape:connector-curvature="0"
       style="fill:#000000;stroke:none"
       id="path2235"
       d="m 178.854,31.519991 c 9.165,0 16.591,-7.428 16.591,-16.593 0,-9.1629999 -7.426,-16.5909998 -16.591,-16.5909998 -9.163,0 -16.591,7.4279999 -16.591,16.5909998 0,9.165 7.428,16.593 16.591,16.593 z" />
  </g>
</svg>
